<svg id="Capa_1" data-name="Capa 1" xmlns="http://www.w3.org/2000/svg" viewBox="0 0 250 250"><defs><style>.cls-1{fill:#052669;}.cls-2{fill:#ebc066;}</style></defs><path class="cls-1" d="M44.43,164.7V151.64H152.31V72.58H165.1A60.91,60.91,0,0,1,179.84,74a22.12,22.12,0,0,1,9.36,4.84,25,25,0,0,1,6.15,8.77,26.56,26.56,0,0,1,2.33,10.74,21.76,21.76,0,0,1-7.58,16.76,22.27,22.27,0,0,1,11.57,8.77,26,26,0,0,1-3.34,32.7A25,25,0,0,1,188,163a59.79,59.79,0,0,1-15.69,1.73Zm120.73-52.56h4.35q7.76,0,11.37-3.43t3.61-10.11q0-6.51-3.7-9.88t-10.74-3.37h-4.89Zm0,39.5h8.59q9.42,0,13.84-3.7a12.79,12.79,0,0,0,4.66-10.15,13,13,0,0,0-4.48-10q-4.35-4-15.57-4h-7Z"/><path class="cls-2" d="M58.79,126.41l-6,25.26h90.82L138,115.43c-.62-4.08-5.06-4.16-5.78-.11L121.92,180c-.71,4-5.09,4-5.77,0L99.58,93.61c-.69-4.08-5.16-4-5.79.08L79.18,173.8c-.63,4.07-5.05,4.18-5.78.14l-8.88-47.39C63.81,122.65,59.6,122.55,58.79,126.41Z"/></svg>