<svg id="Capa_1" data-name="Capa 1" xmlns="http://www.w3.org/2000/svg" viewBox="0 0 250 250"><defs><style>.cls-1{fill:#fff;}.cls-2{fill:#ebc066;}</style></defs><path class="cls-1" d="M27.82,117.13v-10.2h84.24V45.2h10a47.14,47.14,0,0,1,11.51,1.12,17.27,17.27,0,0,1,7.31,3.77,19.58,19.58,0,0,1,4.8,6.85,20.72,20.72,0,0,1,1.81,8.39,17,17,0,0,1-5.91,13.09,17.38,17.38,0,0,1,9,6.84A19.37,19.37,0,0,1,154,96.54a19.16,19.16,0,0,1-6,14.25,19.65,19.65,0,0,1-8.06,5,46.93,46.93,0,0,1-12.25,1.35Zm94.27-41h3.4c4,0,7-.9,8.87-2.68s2.82-4.42,2.82-7.9-1-6-2.89-7.71-4.72-2.63-8.38-2.63h-3.82Zm0,30.84h6.7q7.36,0,10.81-2.89a10,10,0,0,0,3.64-7.92,10.15,10.15,0,0,0-3.5-7.83q-3.41-3.12-12.16-3.12h-5.49Z"/><path class="cls-1" d="M169.45,71.75v45.38H159V71.75Z"/><path class="cls-1" d="M181.66,132.87c-.29.33,14.58,0,18.74,0,7.67,0,11.53-5.07,11.53-14.48v-6.34a19.55,19.55,0,0,1-14.4,6.38,19.29,19.29,0,0,1-15.18-6.71q-6-6.8-6-17a26.14,26.14,0,0,1,5.55-16.86,19.24,19.24,0,0,1,15.74-7.36,18.27,18.27,0,0,1,14.26,6.38V71.75h10.48v44.31c0,2.14-.07,4-.21,5.66a39.35,39.35,0,0,1-.58,4.31,22.35,22.35,0,0,1-4.57,9.55,21.13,21.13,0,0,1-16.72,7.49c-6.06,0-11-2.79-15-6a18.53,18.53,0,0,1-3.72-4.15m30.69-38.34q0-6.61-3.54-10.57a11.71,11.71,0,0,0-9.18-4,11.28,11.28,0,0,0-9.41,4.42,16.08,16.08,0,0,0-3.12,10.25,15.93,15.93,0,0,0,3.12,10.16,11.32,11.32,0,0,0,9.41,4.33,11.5,11.5,0,0,0,9.5-4.38A15.56,15.56,0,0,0,212.35,94.53Z"/><path class="cls-1" d="M27.59,204.8V132.87H42.68q10.86,0,17.15,2.14a32.23,32.23,0,0,1,12.25,7.13q11.13,10.16,11.13,26.7t-11.6,26.83a33.9,33.9,0,0,1-12.2,7.13q-6,2-16.91,2Zm10.85-10.2h4.89a41,41,0,0,0,12.16-1.54,24.74,24.74,0,0,0,8.76-5.17q8-7.32,8-19t-7.91-19.2q-7.14-6.57-21-6.57H38.44Z"/><path class="cls-1" d="M126.75,143.07H101.68v17.29h24.18v10.2H101.68V204.8H90.83V132.87h35.92Z"/><path class="cls-1" d="M156.35,143.07V204.8H145.5V143.07H123.33v-10.2h78.26v10.2Z"/><path class="cls-2" d="M83.21,110h5.13L86,124.55Zm-32.42,0h3.72l-1.83,10Zm44.59-6,3.26-20.37L101.78,104ZM61.7,104l7-38.07L76,104Zm-23.55,0,3-12.76L43.57,104Z"/><path class="cls-2" d="M68.72,82.2,72.32,101h-7L68.72,82.2m-.09-22.94c-1,0-2,.81-2.27,2.43L58.1,107H79.58l-8.7-45.33c-.27-1.58-1.26-2.36-2.25-2.36Zm30,17c-1,0-2,.78-2.25,2.34L91.86,107h13.41l-4.36-28.29c-.24-1.61-1.25-2.43-2.26-2.43ZM41.26,85A2.44,2.44,0,0,0,39,87.23L34.36,107H47.18L43.51,87.34C43.22,85.79,42.24,85,41.26,85ZM91.86,107H79.58l4.24,22.1c.27,1.58,1.26,2.37,2.25,2.37s2-.78,2.25-2.34L91.86,107ZM58.1,107H47.18l3.26,17.39c.28,1.55,1.26,2.32,2.24,2.32s2-.81,2.27-2.43L58.1,107Z"/><path class="cls-1" d="M157.38,60a6.85,6.85,0,0,1,6.8-6.75,6.59,6.59,0,0,1,4.85,2,6.45,6.45,0,0,1,2,4.8,6.61,6.61,0,0,1-2,4.84,6.46,6.46,0,0,1-4.8,2,6.86,6.86,0,0,1-6.85-6.9Z"/><path class="cls-2" d="M166,170.48a18.49,18.49,0,0,1,18.39-18.25,17.82,17.82,0,0,1,13.09,5.41,17.44,17.44,0,0,1,5.42,13,17.85,17.85,0,0,1-5.42,13.1,17.42,17.42,0,0,1-13,5.41A18.49,18.49,0,0,1,166,170.48Z"/></svg>